<mxfile host="65bd71144e">
    <diagram name="LifeOS Detailed Architecture" id="arch2">
        <mxGraphModel dx="5416" dy="3385" grid="1" gridSize="10" guides="1" tooltips="1" connect="1" arrows="1" fold="1" page="1" pageScale="1" pageWidth="1400" pageHeight="900" math="0" shadow="0">
            <root>
                <mxCell id="0"/>
                <mxCell id="1" parent="0"/>
                <mxCell id="frontend" value="Frontend (React)" style="shape=rectangle;rounded=1;fillColor=#D5E8D4;strokeColor=#82B366;fontStyle=1;arcSize=41;" parent="1" vertex="1">
                    <mxGeometry x="20" y="20" width="260" height="140" as="geometry"/>
                </mxCell>
                <mxCell id="fe1" value="src/components/*" style="shape=note;fillColor=#ffffff;strokeColor=#000000;" parent="1" vertex="1">
                    <mxGeometry x="40" y="60" width="220" height="20" as="geometry"/>
                </mxCell>
                <mxCell id="fe2" value="src/features/*Slice.ts" style="shape=note;fillColor=#ffffff;strokeColor=#000000;" parent="1" vertex="1">
                    <mxGeometry x="40" y="85" width="220" height="20" as="geometry"/>
                </mxCell>
                <mxCell id="fe3" value="src/services/api.ts" style="shape=note;fillColor=#ffffff;strokeColor=#000000;" parent="1" vertex="1">
                    <mxGeometry x="40" y="110" width="220" height="20" as="geometry"/>
                </mxCell>
                <mxCell id="backend" value="Backend (Node/Express)" style="shape=rectangle;rounded=1;fillColor=#DAE8FC;strokeColor=#6C8EBF;fontStyle=1;" parent="1" vertex="1">
                    <mxGeometry x="320" y="20" width="300" height="200" as="geometry"/>
                </mxCell>
                <mxCell id="be1" value="src/routes/*.ts" style="shape=note;fillColor=#ffffff;strokeColor=#000000;" parent="1" vertex="1">
                    <mxGeometry x="340" y="60" width="260" height="20" as="geometry"/>
                </mxCell>
                <mxCell id="be2" value="src/middleware/*.ts" style="shape=note;fillColor=#ffffff;strokeColor=#000000;" parent="1" vertex="1">
                    <mxGeometry x="340" y="85" width="260" height="20" as="geometry"/>
                </mxCell>
                <mxCell id="be3" value="src/schemas/*.ts (Zod)" style="shape=note;fillColor=#ffffff;strokeColor=#000000;" parent="1" vertex="1">
                    <mxGeometry x="340" y="110" width="260" height="20" as="geometry"/>
                </mxCell>
                <mxCell id="be4" value="src/utils/validate.ts" style="shape=note;fillColor=#ffffff;strokeColor=#000000;" parent="1" vertex="1">
                    <mxGeometry x="340" y="135" width="260" height="20" as="geometry"/>
                </mxCell>
                <mxCell id="be5" value="src/models/*.ts" style="shape=note;fillColor=#ffffff;strokeColor=#000000;" parent="1" vertex="1">
                    <mxGeometry x="340" y="160" width="260" height="20" as="geometry"/>
                </mxCell>
                <mxCell id="ext1" value="Macro API Service" style="shape=ellipse;fillColor=#E1D5E7;strokeColor=#9673A6;" parent="1" vertex="1">
                    <mxGeometry x="660" y="60" width="140" height="60" as="geometry"/>
                </mxCell>
                <mxCell id="ext2" value="AI Summary Service" style="shape=ellipse;fillColor=#E1D5E7;strokeColor=#9673A6;" parent="1" vertex="1">
                    <mxGeometry x="660" y="160" width="140" height="60" as="geometry"/>
                </mxCell>
                <mxCell id="models" value="Mongoose Models" style="shape=rectangle;rounded=1;fillColor=#F5F5F5;strokeColor=#999999;" parent="1" vertex="1">
                    <mxGeometry x="320" y="240" width="300" height="140" as="geometry"/>
                </mxCell>
                <mxCell id="db1" value="Collections:" style="shape=label;fillColor=none;strokeColor=none;" parent="1" vertex="1">
                    <mxGeometry x="340" y="280" width="260" height="20" as="geometry"/>
                </mxCell>
                <mxCell id="db2" value="- users, userSettings" style="shape=label;fillColor=none;strokeColor=none;" parent="1" vertex="1">
                    <mxGeometry x="340" y="300" width="260" height="20" as="geometry"/>
                </mxCell>
                <mxCell id="db3" value="- scheduleEntries" style="shape=label;fillColor=none;strokeColor=none;" parent="1" vertex="1">
                    <mxGeometry x="340" y="320" width="260" height="20" as="geometry"/>
                </mxCell>
                <mxCell id="db4" value="- foodItems, foodLogs" style="shape=label;fillColor=none;strokeColor=none;" parent="1" vertex="1">
                    <mxGeometry x="340" y="340" width="260" height="20" as="geometry"/>
                </mxCell>
                <mxCell id="db5" value="- supplements, compounds" style="shape=label;fillColor=none;strokeColor=none;" parent="1" vertex="1">
                    <mxGeometry x="340" y="360" width="260" height="20" as="geometry"/>
                </mxCell>
                <mxCell id="db6" value="- learningSessions, summaries, goals" style="shape=label;fillColor=none;strokeColor=none;" parent="1" vertex="1">
                    <mxGeometry x="340" y="380" width="260" height="20" as="geometry"/>
                </mxCell>
                <mxCell id=" mongodb" value="MongoDB Atlas" style="shape=cylinder;fillColor=#D0E0E3;strokeColor=#537791;" parent="1" vertex="1">
                    <mxGeometry x="660" y="280" width="140" height="100" as="geometry"/>
                </mxCell>
                <mxCell id="c1" parent="1" source="frontend" target="backend" edge="1"/>
                <mxCell id="c2" parent="1" source="backend" edge="1"/>
                <mxCell id="c3" parent="1" edge="1"/>
                <mxCell id="c4" parent="1" edge="1"/>
                <mxCell id="c5" parent="1" target="ext1" edge="1"/>
                <mxCell id="c6" parent="1" target="ext2" edge="1"/>
                <mxCell id="c7" parent="1" target="models" edge="1"/>
                <mxCell id="c8" parent="1" source="models" target=" mongodb" edge="1"/>
                <mxCell id="2" style="edgeStyle=none;html=1;exitX=1;exitY=0.5;exitDx=0;exitDy=0;entryX=0.033;entryY=0.35;entryDx=0;entryDy=0;entryPerimeter=0;" edge="1" parent="1" source="frontend" target="backend">
                    <mxGeometry relative="1" as="geometry"/>
                </mxCell>
            </root>
        </mxGraphModel>
    </diagram>
</mxfile>